<svg id="Слой_1" data-name="Слой 1" xmlns="http://www.w3.org/2000/svg" viewBox="0 0 1920 1080"><defs><style>.cls-1,.cls-9{fill:#fa4c5f;}.cls-1,.cls-13,.cls-14,.cls-3,.cls-4,.cls-5,.cls-6,.cls-7{fill-rule:evenodd;}.cls-2,.cls-3{fill:#e35393;}.cls-12,.cls-4{fill:#8e439c;}.cls-11,.cls-5{fill:#1f4a9e;}.cls-6,.cls-8{fill:#fbd33a;}.cls-10,.cls-7{fill:#62d0f2;}.cls-13{fill:#fff;}.cls-14{fill:#60d0dd;}</style></defs><title>Монтажная область 2</title><path class="cls-1" d="M358.94,700.1l-34.4,34.4-34.4-34.4-34.36,34.36a68.79,68.79,0,0,0,137.54,0L359,700.1Z"/><rect class="cls-2" x="302.14" y="668.71" width="44.78" height="44.78" transform="translate(583.73 -27.06) rotate(45)"/><polygon class="cls-3" points="393.32 722.76 361.65 691.1 393.32 659.44 393.32 722.76"/><polygon class="cls-3" points="255.74 659.44 287.39 691.1 255.74 722.76 255.74 659.44"/><path class="cls-1" d="M1408.13,509.33h43v43.05h43a60.87,60.87,0,0,0-86.06-86.06v43Z"/><rect class="cls-2" x="1404.83" y="516.07" width="39.62" height="39.62" transform="translate(888.75 1960.52) rotate(-90)"/><polygon class="cls-3" points="1401.42 473.02 1401.42 512.64 1361.8 512.64 1401.42 473.02"/><polygon class="cls-3" points="1447.86 598.7 1447.86 559.08 1487.48 559.08 1447.86 598.7"/><polygon class="cls-4" points="286.48 1080.63 127.26 921.4 127.26 1080.63 286.48 1080.63"/><polygon class="cls-1" points="626.3 1080.63 401.3 855.62 401.3 1080.63 626.3 1080.63"/><polygon class="cls-1" points="380.66 920.04 275.79 920.04 275.79 1024.91 380.66 920.04"/><polygon class="cls-5" points="380.66 1024.91 380.66 920.04 275.79 1024.91 380.66 1024.91"/><polygon class="cls-6" points="328.05 1023.57 328.05 921.38 379.14 972.48 328.05 1023.57"/><polygon class="cls-7" points="328.05 1023.57 328.05 921.38 276.95 972.48 328.05 1023.57"/><polygon class="cls-7" points="1134.55 321.53 1045.66 232.64 956.77 321.53 1134.55 321.53"/><polygon class="cls-5" points="1045.66 410.41 1134.55 321.53 956.77 321.53 1045.66 410.41"/><polygon class="cls-6" points="1002.2 364.68 1088.81 278.07 1088.81 364.68 1002.2 364.68"/><polygon class="cls-3" points="1002.2 364.68 1088.81 278.07 1002.2 278.07 1002.2 364.68"/><rect class="cls-8" x="627.58" y="950.95" width="106.91" height="106.91" transform="translate(-510.75 775.76) rotate(-45)"/><polygon class="cls-7" points="579.41 979.64 501.59 901.82 579.41 901.82 579.41 979.64"/><path class="cls-3" d="M655.41,789.19a38.7,38.7,0,1,1-38.7,38.7,38.7,38.7,0,0,1,38.7-38.7"/><path class="cls-6" d="M505.28,143A154.21,154.21,0,0,0,408.92.07H293.31a154.43,154.43,0,0,0-25.57,13.27,90.79,90.79,0,0,1-66.34,152.8c-.91,0-1.81,0-2.71,0A154.16,154.16,0,0,0,505.28,143"/><polygon class="cls-1" points="262.32 297.17 338.12 372.97 338.12 221.38 262.32 297.17"/><polygon class="cls-5" points="377.36 440.71 453.16 364.91 377.36 289.12 377.36 440.71"/><rect class="cls-9" x="626.7" y="250.94" width="88.85" height="88.85" transform="translate(-12.28 561.07) rotate(-45)"/><rect class="cls-10" x="542.91" y="49.06" width="79.19" height="79.19" transform="translate(107.92 437.86) rotate(-45)"/><rect class="cls-11" x="258.07" y="530.85" width="67.82" height="67.82" transform="translate(-313.83 371.87) rotate(-45)"/><rect class="cls-12" x="108.11" y="279.7" width="82.4" height="82.4" transform="translate(-183.18 199.57) rotate(-45)"/><rect class="cls-12" x="248.99" y="390.39" width="85.97" height="85.97" transform="translate(-220.93 333.4) rotate(-45)"/><path class="cls-6" d="M292,433.38v18.89a18.9,18.9,0,0,0,0-37.79Z"/><rect class="cls-2" x="1099.62" y="436.88" width="85.97" height="85.97" transform="translate(-4.65 948.5) rotate(-45)"/><path class="cls-6" d="M1142.6,479.87v18.89a18.9,18.9,0,1,0,0-37.79Z"/><path class="cls-1" d="M292,564.76V549.85a14.91,14.91,0,1,0,0,29.81Z"/><path class="cls-6" d="M177.72,206.26a31.5,31.5,0,1,0-31.5,31.51,31.5,31.5,0,0,0,31.5-31.51"/><path class="cls-6" d="M1216.81,339.22a31.5,31.5,0,1,0-31.5,31.5,31.5,31.5,0,0,0,31.5-31.5"/><polygon class="cls-5" points="589.71 456.7 653.69 392.72 589.71 328.74 589.71 456.7"/><polygon class="cls-7" points="607.63 493.27 703.2 493.27 607.63 588.84 607.63 493.27"/><polygon class="cls-5" points="182.24 714.55 182.24 791.4 105.39 791.4 182.24 714.55"/><polygon class="cls-5" points="960.44 768.9 960.44 845.75 883.59 845.75 960.44 768.9"/><polygon class="cls-6" points="550.77 558.36 574.11 581.69 574.11 535.02 550.77 558.36"/><polygon class="cls-7" points="593.77 798.94 617.11 775.6 593.77 752.26 593.77 798.94"/><rect class="cls-8" x="481.5" y="334.24" width="75.82" height="75.82"/><path class="cls-3" d="M519.41,372.15V355.48a16.67,16.67,0,1,0,0,33.33Z"/><path class="cls-5" d="M303.78,0a19,19,0,0,0,5.11,9.19L318.08,0Z"/><polygon class="cls-6" points="660.65 38.95 699.6 0 621.7 0 660.65 38.95"/><rect class="cls-12" x="666.29" y="72.85" width="31.62" height="31.62" transform="translate(137.09 508.28) rotate(-45)"/><rect class="cls-12" x="903.53" y="532.89" width="31.62" height="31.62" transform="translate(-118.72 810.78) rotate(-45)"/><polygon class="cls-6" points="535.51 457.8 496.34 496.98 496.34 457.8 535.51 457.8"/><polygon class="cls-6" points="633.52 192.37 531.5 294.39 531.5 192.37 633.52 192.37"/><path class="cls-6" d="M272.79,72a71.88,71.88,0,1,0-71.88,71.88A71.89,71.89,0,0,0,272.79,72"/><rect class="cls-10" x="191.6" y="205.81" width="67.5" height="67.5" transform="translate(-103.39 229.51) rotate(-45)"/><path class="cls-6" d="M1199.08,588.84a31.5,31.5,0,1,0-31.5,31.51,31.5,31.5,0,0,0,31.5-31.51"/><rect class="cls-10" x="837.86" y="737.22" width="67.5" height="67.5" transform="translate(-289.87 842.14) rotate(-45)"/><polygon class="cls-4" points="358.8 51.8 358.8 0 307.01 0 358.8 51.8"/><polygon class="cls-13" points="358.7 51.8 358.7 0 410.49 0 358.7 51.8"/><polygon class="cls-6" points="239.13 8.7 247.83 0 230.44 0 239.13 8.7"/><rect class="cls-8" x="382.88" y="457.68" width="83.38" height="83.38"/><path class="cls-7" d="M1695.84,321.46A36.85,36.85,0,1,0,1659,358.31a36.84,36.84,0,0,0,36.84-36.85"/><polygon class="cls-3" points="515.95 550.17 417.23 648.9 515.95 747.62 515.95 550.17"/><polygon class="cls-4" points="558 631.14 616.45 689.59 558 748.03 558 631.14"/><polygon class="cls-4" points="186.29 923.8 186.29 811.91 130.35 867.86 186.29 923.8"/><polygon class="cls-6" points="186.19 923.8 186.19 811.91 242.13 867.86 186.19 923.8"/><rect class="cls-11" x="437.27" y="776.86" width="79.69" height="79.69" transform="translate(-437.76 576.58) rotate(-45)"/><path class="cls-5" d="M424.57,561.52H394.92a29.65,29.65,0,0,0,59.3,0Z"/><polygon class="cls-7" points="400.57 824.01 322.74 901.84 322.74 824.01 400.57 824.01"/><polygon class="cls-7" points="1309.07 1052.67 1309.07 906.61 1455.14 906.61 1309.07 1052.67"/><rect class="cls-12" x="1147.38" y="826.31" width="73.24" height="73.24"/><path class="cls-6" d="M1202,771a18,18,0,1,0-18,18,18,18,0,0,0,18-18"/><path class="cls-7" d="M1246.79,404v25.5a25.5,25.5,0,0,0,0-51Z"/><polygon class="cls-7" points="1567.16 1080.51 1538.57 1051.93 1509.99 1080.51 1567.16 1080.51"/><polygon class="cls-1" points="1033.42 873.34 885.51 873.33 959.47 947.29 1033.42 873.34"/><polygon class="cls-4" points="1240.41 495.14 1240.41 605.2 1295.44 550.17 1240.41 495.14"/><polygon class="cls-6" points="1313.96 660.48 1236.14 738.3 1236.14 660.48 1313.96 660.48"/><polygon class="cls-1" points="1432.89 880.24 1280.31 727.65 1280.31 880.24 1432.89 880.24"/><polygon class="cls-5" points="1432.08 615.83 1333.36 714.55 1432.08 813.28 1432.08 615.83"/><path class="cls-5" d="M1638.05,877.27,1658.36,857a28.73,28.73,0,0,0-40.63,40.64Z"/><path class="cls-5" d="M1129.42,926h-29.64a29.65,29.65,0,1,0,59.29,0Z"/><rect class="cls-8" x="1412.79" y="962.57" width="84.69" height="84.69" transform="translate(-284.38 1323.28) rotate(-45)"/><rect class="cls-9" x="1243.74" y="1016.84" width="31.62" height="31.62" transform="translate(-361.28 1193.11) rotate(-45)"/><polygon class="cls-7" points="838.75 1011.75 838.75 880.31 904.46 946.03 838.75 1011.75"/><polygon class="cls-6" points="815.85 880.31 815.85 1011.75 750.14 946.03 815.85 880.31"/><rect class="cls-8" x="1341.76" y="554.39" width="40.08" height="40.08"/><polygon class="cls-1" points="721.01 786.53 643.18 708.71 721.01 708.71 721.01 786.53"/><path class="cls-6" d="M993.9,1080.5a71.89,71.89,0,0,0-143.77,0v.12H993.9Z"/><polygon class="cls-7" points="1537.94 867.59 1596.38 926.03 1537.94 984.48 1537.94 867.59"/><polygon class="cls-4" points="1161.32 1072.46 1161.32 960.58 1105.38 1016.52 1161.32 1072.46"/><rect class="cls-8" x="1205.94" y="963.5" width="38.36" height="38.36" transform="translate(-336.02 1154.14) rotate(-45)"/><rect class="cls-10" x="1000.09" y="940.73" width="64.19" height="64.19"/><rect class="cls-11" x="756.66" y="807.33" width="52.68" height="52.68"/><path class="cls-3" d="M1409.84,314.64a52.47,52.47,0,1,1-52.47,52.47,52.48,52.48,0,0,1,52.47-52.47"/><rect class="cls-9" x="1280.75" y="434.4" width="46.81" height="46.81"/><rect class="cls-11" x="933.85" y="100.62" width="85.97" height="85.97" transform="translate(184.57 732.79) rotate(-45)"/><polygon class="cls-7" points="922.01 88.78 982.81 27.98 954.82 0 889.21 0 861.22 27.98 922.01 88.78"/><path class="cls-1" d="M890.5,129.57l13.36-13.36a18.89,18.89,0,1,0-26.72,26.72Z"/><polygon class="cls-6" points="800.51 229.58 832.7 197.39 832.7 229.58 800.51 229.58"/><polygon class="cls-1" points="731.39 108.71 790.4 167.73 790.4 108.71 731.39 108.71"/><path class="cls-6" d="M805.37,49.1A32.38,32.38,0,1,0,773,81.48,32.38,32.38,0,0,0,805.37,49.1"/><polygon class="cls-5" points="1226.84 96.43 1323.26 0 1226.84 0 1226.84 96.43"/><polygon class="cls-7" points="1304.15 76.12 1443.78 76.12 1304.16 215.74 1304.15 76.12"/><polygon class="cls-5" points="1443.78 76.12 1443.78 215.74 1304.16 215.74 1443.78 76.12"/><polygon class="cls-6" points="1339.87 145.93 1373.97 180.02 1373.97 111.83 1339.87 145.93"/><polygon class="cls-7" points="1373.97 180.02 1408.06 145.93 1373.97 111.83 1373.97 180.02"/><polygon class="cls-6" points="1452.05 82.85 1534.9 0 1369.21 0 1452.05 82.85"/><rect class="cls-12" x="1057.22" y="18.05" width="101.5" height="101.5"/><polygon class="cls-3" points="1233.41 170.56 1167.58 236.39 1233.41 302.22 1233.41 170.56"/><polygon class="cls-7" points="1282.79 230.67 1341.23 289.12 1282.79 347.56 1282.79 230.67"/><rect class="cls-11" x="1529.71" y="380.34" width="59.42" height="59.42" transform="translate(160.28 1211.52) rotate(-44.54)"/><path class="cls-6" d="M1103.33,155.74h-29.64a29.65,29.65,0,0,0,59.29,0Z"/><polygon class="cls-7" points="1920 699.39 1781.68 699.39 1920 561.08 1920 699.39"/><polygon class="cls-5" points="1920 392.47 1853.8 326.27 1853.8 497.2 1920 497.2 1920 392.47"/><rect class="cls-9" x="1663.72" y="388" width="171.94" height="171.94"/><path class="cls-6" d="M1807,474a57.32,57.32,0,1,0-57.31,57.32A57.31,57.31,0,0,0,1807,474"/><path class="cls-3" d="M1749.69,474v29.65a29.65,29.65,0,1,0,0-59.29Z"/><path class="cls-4" d="M738,666.41a57.32,57.32,0,1,0-57.31-57.32A57.32,57.32,0,0,0,738,666.41"/><path class="cls-6" d="M738,609.09H708.36a29.65,29.65,0,1,0,59.29,0Z"/><polygon class="cls-1" points="1920 115.99 1812.26 8.25 1812.26 195.99 1920 195.99 1920 115.99"/><polygon class="cls-1" points="1778.35 117.73 1643.46 117.73 1643.46 252.62 1778.35 117.73"/><polygon class="cls-5" points="1782.59 962.87 1868.24 962.87 1782.59 877.22 1782.59 962.87"/><polygon class="cls-7" points="1857.88 923.85 1857.88 838.2 1772.23 838.2 1857.88 923.85"/><polygon class="cls-4" points="1622.27 621.75 1531.45 530.93 1531.45 621.75 1622.27 621.75"/><polygon class="cls-4" points="1669.31 1080.63 1714.52 1035.41 1653.72 974.62 1592.93 1035.41 1638.14 1080.63 1669.31 1080.63"/><path class="cls-6" d="M1653.72,1035.42l13.36-13.36a18.89,18.89,0,0,0-26.72,26.72Z"/><polygon class="cls-3" points="1644.91 787.31 1473.7 616.11 1473.7 787.31 1644.91 787.31"/><polygon class="cls-5" points="1841.16 1009.45 1911.71 1080 1920 1080 1920 930.61 1841.16 1009.45"/><path class="cls-5" d="M1816.47,622.58l20.32-20.32a28.74,28.74,0,1,0-40.64,40.64Z"/><path class="cls-5" d="M1180.21,705.92l20.32-20.32a28.73,28.73,0,0,0-40.63,40.64Z"/><path class="cls-5" d="M1920,728.33a37.15,37.15,0,1,0,0,64Z"/><polygon class="cls-3" points="1778.35 252.62 1778.35 117.73 1643.46 252.62 1778.35 252.62"/><polygon class="cls-6" points="1710.67 250.89 1710.67 119.46 1776.39 185.17 1710.67 250.89"/><polygon class="cls-7" points="1710.67 250.89 1710.67 119.46 1644.95 185.17 1710.67 250.89"/><polygon class="cls-7" points="1561.49 498.09 1468.56 405.15 1561.49 405.15 1561.49 498.09"/><polygon class="cls-7" points="1920 80.79 1876.62 37.41 1920 37.41 1920 80.79"/><rect class="cls-10" x="1649.39" y="878.9" width="85.97" height="85.97" transform="translate(-156.19 1466.69) rotate(-45)"/><polygon class="cls-4" points="1713.07 794.66 1713.07 682.77 1657.13 738.72 1713.07 794.66"/><polygon class="cls-1" points="1735.57 794.66 1735.57 682.77 1791.51 738.72 1735.57 794.66"/><rect class="cls-8" x="1600.06" y="641.09" width="48.36" height="48.36" transform="translate(5.31 1343.37) rotate(-45)"/><rect class="cls-10" x="1600.67" y="495.19" width="47.13" height="47.13"/><rect class="cls-2" x="979.22" y="476.61" width="58.45" height="58.45"/><path class="cls-6" d="M1108,49A19.77,19.77,0,1,1,1088.2,68.8,19.77,19.77,0,0,1,1108,49"/><rect class="cls-12" x="1905.16" y="214.48" width="14.84" height="101.4"/><polygon class="cls-4" points="1559.42 138.22 1559.42 27.47 1558.28 27.47 1503.48 82.28 1559.42 138.22"/><polygon class="cls-6" points="1559.31 138.22 1559.31 27.47 1560.44 27.47 1615.25 82.28 1559.31 138.22"/><polygon class="cls-4" points="738.73 374.16 738.73 484.91 739.87 484.91 794.67 430.1 738.73 374.16"/><polygon class="cls-6" points="738.84 374.16 738.84 484.91 737.71 484.91 682.9 430.1 738.84 374.16"/><polygon class="cls-1" points="20.39 7.04 13.35 0 0 0 0 7.04 20.39 7.04"/><polygon class="cls-5" points="118.52 629.02 180.11 567.42 118.52 505.83 118.52 629.02"/><polygon class="cls-7" points="0 806.41 105.58 806.41 0 911.99 0 806.41"/><polygon class="cls-5" points="105.58 806.41 105.58 946.03 0 946.03 0 911.99 105.58 806.41"/><polygon class="cls-6" points="1.68 876.22 35.77 910.31 35.77 842.13 1.68 876.22"/><polygon class="cls-7" points="35.77 910.31 69.86 876.22 35.77 842.13 35.77 910.31"/><polygon class="cls-6" points="85.04 217.28 0 132.24 0 217.28 85.04 217.28"/><polygon class="cls-5" points="78.14 0.07 6.3 71.91 105.03 170.63 105.03 0.07 78.14 0.07"/><polygon class="cls-1" points="7.32 358.91 63.26 302.96 7.32 247.02 0 254.34 0 351.59 7.32 358.91"/><path class="cls-3" d="M2.26,1039.35a25.47,25.47,0,1,0,0-45.66Z"/><polygon class="cls-6" points="146.95 678.68 220.31 605.32 220.31 678.68 146.95 678.68"/><rect class="cls-8" x="1489.5" y="833.71" width="64.34" height="64.34" transform="translate(-166.58 1329.61) rotate(-45)"/><polygon class="cls-7" points="761.18 238.73 819.62 297.17 761.18 355.62 761.18 238.73"/><rect class="cls-8" x="863.86" y="199.27" width="64.34" height="64.34" transform="translate(98.79 701.38) rotate(-45)"/><path class="cls-1" d="M819.56,714.91l23.34-23.34a33,33,0,1,0-46.68,46.67Z"/><rect class="cls-8" x="888.02" y="613.39" width="64.34" height="64.34" transform="translate(-186.96 839.76) rotate(-45)"/><polygon class="cls-5" points="1072.72 597.79 1104.91 565.6 1104.91 597.79 1072.72 597.79"/><polygon class="cls-1" points="809.84 460.31 868.28 518.76 809.84 577.2 809.84 460.31"/><rect class="cls-12" x="1000.02" y="611.46" width="64.34" height="64.34" transform="translate(-152.79 918.39) rotate(-45)"/><polygon class="cls-7" points="212.91 447.92 271.35 506.36 212.91 564.8 212.91 447.92"/><path class="cls-8" d="M1405.92,297V239a29,29,0,1,0,0,57.95Z"/><path class="cls-12" d="M1413.16,280.06v59.16a29.58,29.58,0,1,0,0-59.16Z"/><path class="cls-12" d="M1546.37,311.79V195.9a57.95,57.95,0,0,0,0,115.89Z"/><rect class="cls-9" x="1530.99" y="238.46" width="30.77" height="30.77" transform="translate(632.42 -1019.1) rotate(45)"/><rect class="cls-12" x="648.73" y="273.82" width="44.78" height="44.78" transform="translate(406.01 -387.8) rotate(45)"/><polygon class="cls-7" points="709.94 247.59 678.28 215.93 709.94 184.27 709.94 247.59"/><polygon class="cls-7" points="657.55 138.97 689.21 170.63 657.55 202.3 657.55 138.97"/><rect class="cls-9" x="1643.05" y="305.51" width="30.77" height="30.77" transform="translate(712.66 -1078.7) rotate(45)"/><path class="cls-7" d="M958.94,410.41a62.09,62.09,0,1,0-62.09,62.09,62.09,62.09,0,0,0,62.09-62.09"/><rect class="cls-9" x="869.97" y="383.54" width="51.86" height="51.86" transform="translate(551.94 -513.57) rotate(45)"/><path class="cls-5" d="M416.28,162H378V123.76H339.8a54.1,54.1,0,0,0,76.49,76.5V162Z"/><rect class="cls-12" x="384.54" y="120.28" width="35.22" height="35.22" transform="translate(540.03 -264.26) rotate(90)"/><polygon class="cls-4" points="422.8 193.75 422.8 158.53 458.01 158.53 422.8 193.75"/><polygon class="cls-4" points="381.5 82.02 381.5 117.23 346.28 117.23 381.5 82.02"/><rect class="cls-9" x="167.8" y="38.85" width="66.22" height="66.22" transform="translate(7.96 163.14) rotate(-45)"/><polygon class="cls-3" points="1646.19 0 1646.19 77.65 1749.69 77.65 1672.04 0 1646.19 0"/><polygon class="cls-1" points="2.26 579.66 2.26 659.79 93.34 750.88 93.34 579.66 2.26 579.66"/><rect class="cls-8" x="1758.95" y="291.01" width="47.27" height="47.27" transform="translate(299.61 1352.61) rotate(-45)"/><polygon class="cls-3" points="85.04 532.76 166.19 451.62 3.9 451.62 85.04 532.76"/><polygon class="cls-14" points="166.19 451.62 85.04 370.47 3.9 451.62 166.19 451.62"/><polygon class="cls-1" points="85.04 479.87 113.29 451.62 56.79 451.62 85.04 479.87"/><polygon class="cls-6" points="113.29 451.62 85.04 423.37 56.79 451.62 113.29 451.62"/><path class="cls-7" d="M1079.19,749.6l-27.06,27-27.06-27-27,27a54.1,54.1,0,0,0,108.17,0l-27-27Z"/><rect class="cls-2" x="1034.51" y="724.91" width="35.22" height="35.22" transform="translate(833.2 -526.48) rotate(45)"/><polygon class="cls-3" points="1106.22 767.42 1081.32 742.52 1106.22 717.62 1106.22 767.42"/><polygon class="cls-3" points="998.01 717.62 1022.92 742.52 998.01 767.42 998.01 717.62"/></svg>