<svg xmlns="http://www.w3.org/2000/svg" viewBox="461.536 9476.772 68.918 75.654">
  <defs>
    <style>
      .cls-1 {
        fill: #634534;
      }

      .cls-2 {
        fill: #7c5641;
      }

      .cls-3 {
        fill: #fff;
        fill-rule: evenodd;
      }
    </style>
  </defs>
  <g id="instagram" transform="translate(461.536 9476.772)">
    <g id="Group_397" data-name="Group 397" transform="translate(0 6.736)">
      <g id="Group_396" data-name="Group 396">
        <rect id="Rectangle_465" data-name="Rectangle 465" class="cls-1" width="68.918" height="68.918"/>
      </g>
    </g>
    <rect id="Rectangle_466" data-name="Rectangle 466" class="cls-2" width="68.918" height="68.918"/>
    <path id="Path_498" data-name="Path 498" class="cls-3" d="M72.391,6.2H47a5.751,5.751,0,0,0-5.7,5.7V37.291a5.751,5.751,0,0,0,5.7,5.7H72.391a5.751,5.751,0,0,0,5.7-5.7V11.9A5.437,5.437,0,0,0,72.391,6.2Zm-4.664,5.182a1.115,1.115,0,0,1,1.036-1.036h4.4A1.115,1.115,0,0,1,74.2,11.382v4.4a1.115,1.115,0,0,1-1.036,1.036h-4.4a1.114,1.114,0,0,1-1.036-1.036ZM52.959,22A7.378,7.378,0,0,1,59.7,17.341,7.012,7.012,0,0,1,66.432,22,9.206,9.206,0,0,1,66.95,24.6a7.255,7.255,0,1,1-14.509,0A9.206,9.206,0,0,1,52.959,22Zm21.5,15.286A1.771,1.771,0,0,1,72.65,39.1H47.259a1.771,1.771,0,0,1-1.814-1.814V22h3.627a8.814,8.814,0,0,0-.259,2.591,11.141,11.141,0,1,0,22.282,0A7.988,7.988,0,0,0,70.836,22h3.627V37.291Z" transform="translate(-25.236 9.864)"/>
  </g>
</svg>
