<svg xmlns="http://www.w3.org/2000/svg" viewBox="659.677 9476.772 68.918 75.654">
  <defs>
    <style>
      .cls-1 {
        fill: #ca2d28;
      }

      .cls-2 {
        fill: #fd3832;
      }

      .cls-3 {
        fill: #fff;
      }
    </style>
  </defs>
  <g id="yt" transform="translate(659.677 9476.772)">
    <g id="Group_392" data-name="Group 392" transform="translate(0 6.736)">
      <g id="Group_391" data-name="Group 391">
        <rect id="Rectangle_463" data-name="Rectangle 463" class="cls-1" width="68.918" height="68.918"/>
      </g>
    </g>
    <rect id="Rectangle_464" data-name="Rectangle 464" class="cls-2" width="68.918" height="68.918"/>
    <g id="Group_394" data-name="Group 394" transform="translate(17.618 13.991)">
      <path id="Path_494" data-name="Path 494" class="cls-3" d="M122.073,5.4h-2.332l-1.555,5.959L116.632,5.4H114.3c.518,1.3,1.036,2.85,1.555,4.4a17.245,17.245,0,0,1,1.3,4.923v6.218h2.332V14.468Zm6.218,11.659V13.173a5.574,5.574,0,0,0-.518-2.591,2.746,2.746,0,0,0-4.664,0,3.868,3.868,0,0,0-.777,2.591v3.886a3.439,3.439,0,0,0,.777,2.591,2.746,2.746,0,0,0,4.664,0A5.574,5.574,0,0,0,128.291,17.059Zm-2.073.518c0,1.036-.259,1.555-1.036,1.555s-1.036-.518-1.036-1.555V12.655c0-1.036.259-1.555,1.036-1.555s1.036.518,1.036,1.555Zm9.586,3.109V9.286h-2.073V18.1c-.518.777-.777,1.036-1.3,1.036a.557.557,0,0,1-.518-.518V9.286h-2.073v9.068a3.842,3.842,0,0,0,.259,1.814,1.425,1.425,0,0,0,1.3.777,3.582,3.582,0,0,0,2.332-1.3v1.3H135.8Z" transform="translate(-108.859 -5.4)"/>
      <g id="Group_393" data-name="Group 393" transform="translate(0 17.359)">
        <path id="Path_495" data-name="Path 495" class="cls-3" d="M120.736,15.8a1.964,1.964,0,0,0-1.036.518v7a1.964,1.964,0,0,0,1.036.518q.777,0,.777-1.555V17.355Q121.9,15.8,120.736,15.8Z" transform="translate(-100.268 -6.214)"/>
        <path id="Path_496" data-name="Path 496" class="cls-3" d="M123.736,15.8c-.777,0-1.036.518-1.036,1.555v1.036h2.073V17.355C124.773,16.318,124.255,15.8,123.736,15.8Z" transform="translate(-95.495 -6.214)"/>
        <path id="Path_497" data-name="Path 497" class="cls-3" d="M145.364,15.986a4.42,4.42,0,0,0-3.627-3.368,104.036,104.036,0,0,0-12.7-.518,104.036,104.036,0,0,0-12.7.518,4.129,4.129,0,0,0-3.627,3.368,41.853,41.853,0,0,0-.518,8.032,41.853,41.853,0,0,0,.518,8.032,4.42,4.42,0,0,0,3.627,3.368,104.036,104.036,0,0,0,12.7.518,104.036,104.036,0,0,0,12.7-.518,4.129,4.129,0,0,0,3.627-3.368,41.853,41.853,0,0,0,.518-8.032A40.534,40.534,0,0,0,145.364,15.986Zm-23.577,2.332H119.2V31.273h-2.332V18.318h-2.332V16.245h7.255ZM128,31.273h-2.073v-1.3a2.742,2.742,0,0,1-2.332,1.3,1.2,1.2,0,0,1-1.3-.777,9.193,9.193,0,0,1-.259-1.814V19.614h2.073v9.068a.557.557,0,0,0,.518.518c.518,0,.777-.259,1.3-1.036v-8.55H128Zm7.773-3.368a5.751,5.751,0,0,1-.259,2.332,1.642,1.642,0,0,1-1.555,1.3,2.642,2.642,0,0,1-2.073-1.3v1.036h-2.073V15.986h2.073v4.923c.777-.777,1.3-1.3,2.073-1.3a1.642,1.642,0,0,1,1.555,1.3,5.751,5.751,0,0,1,.259,2.332Zm7.773-1.814H139.4v2.073c0,1.036.259,1.555,1.036,1.555.518,0,.777-.259,1.036-.777v-1.3h2.073V29.2c0,.518-.259.777-.518,1.3a2.859,2.859,0,0,1-2.591,1.3,3.326,3.326,0,0,1-2.591-1.036,3.868,3.868,0,0,1-.777-2.591V24.277a5.574,5.574,0,0,1,.518-2.591c.518-.777,1.3-1.036,2.591-1.036a2.526,2.526,0,0,1,2.332,1.036c.518.518.518,1.555.518,2.591v1.814Z" transform="translate(-112.2 -12.1)"/>
      </g>
    </g>
  </g>
</svg>
