<svg id="Слой_1" data-name="Слой 1" xmlns="http://www.w3.org/2000/svg" viewBox="0 0 1280 612"><defs><style>.cls-1,.cls-2{fill:#1f4a9e;}.cls-1,.cls-3{fill-rule:evenodd;}.cls-3{fill:#62d0f2;}</style></defs><title>Artboard 3 copy 3</title><polygon class="cls-1" points="1129.81 423.83 1230.01 524.04 1230.01 423.83 1129.81 423.83"/><polygon class="cls-1" points="333.87 432.9 333.87 276.89 255.86 354.89 333.87 432.9"/><rect class="cls-2" x="801.31" y="66.46" width="87.12" height="87.12" transform="translate(169.66 629.64) rotate(-45)"/><path class="cls-1" d="M1172,118l38.37,38.37A54.26,54.26,0,0,0,1133.6,79.6Z"/><path class="cls-1" d="M485.13,92.51l30.79-30.79a43.54,43.54,0,0,0-61.58,61.58Z"/><polygon class="cls-1" points="53.94 49.19 53.94 170.86 175.61 49.19 53.94 49.19"/><rect class="cls-2" x="50.01" y="500.63" width="111.37" height="111.37"/><path class="cls-1" d="M95.06,215.23a41.13,41.13,0,1,1-41.12,41.13,41.14,41.14,0,0,1,41.12-41.13"/><polygon class="cls-1" points="1233.61 333.38 1233.61 221.42 1177.63 277.4 1233.61 333.38"/><polygon class="cls-1" points="1010.4 546.41 1097.6 546.41 1054 502.81 1010.4 546.41"/><path class="cls-1" d="M974.27,322H908.38a65.89,65.89,0,0,0,131.78,0Z"/><path class="cls-1" d="M531.35,425.6l35.17,35.18a49.75,49.75,0,1,0-70.35-70.36Z"/><path class="cls-1" d="M844.87,490a79.12,79.12,0,1,0-79.12,79.11A79.12,79.12,0,0,0,844.87,490"/><polygon class="cls-3" points="297.5 571.57 342.65 616.72 387.8 571.57 297.5 571.57"/></svg>