<svg xmlns="http://www.w3.org/2000/svg" viewBox="512 -182.809 166.941 317.963">
  <defs>
    <style>
      .cls-1 {
        fill: #fff;
      }
    </style>
  </defs>
  <g id="Group_189" data-name="Group 189" transform="translate(-71 -251.809)">
    <g id="Group_188" data-name="Group 188" transform="translate(583 69)">
      <path id="Path_310" data-name="Path 310" class="cls-1" d="M111.81,83.755c0-3.283-5.372-3.582-7.362-3.582-6.268,0-16.416,2.587-20.1,3.283C87.436,81.367,96.489,76,100.866,71.618c1.492-1.492,5.074-5.472,2.686-7.76-2.288-2.288-6.268,1.293-7.76,2.686-4.377,4.377-9.849,13.431-11.839,16.515.8-3.681,3.283-13.829,3.283-20.1,0-2.089-.3-7.362-3.582-7.362s-3.582,5.372-3.582,7.362c0,6.268,2.587,16.415,3.283,20.1C81.267,79.975,75.9,70.921,71.518,66.544c-1.492-1.492-5.472-5.074-7.76-2.686-2.288,2.288,1.293,6.268,2.686,7.76,4.377,4.477,13.431,9.849,16.515,11.839-3.681-.8-13.829-3.283-20.1-3.283-2.089,0-7.362.3-7.362,3.582s5.372,3.582,7.362,3.582c6.268,0,16.416-2.587,20.1-3.283-3.084,2.089-12.138,7.462-16.515,11.839-1.492,1.492-5.074,5.472-2.686,7.76,2.288,2.288,6.268-1.293,7.76-2.686,4.377-4.477,9.849-13.431,11.839-16.515-.8,3.681-3.283,13.829-3.283,20.1,0,2.089.3,7.362,3.582,7.362s3.582-5.372,3.582-7.362c0-6.268-2.587-16.415-3.283-20.1,2.089,3.084,7.462,12.138,11.839,16.515,1.492,1.492,5.472,5.074,7.76,2.686,2.288-2.288-1.293-6.268-2.686-7.76-4.477-4.377-13.431-9.849-16.515-11.839,3.681.8,13.829,3.283,20.1,3.283,1.99-.1,7.362-.3,7.362-3.582" transform="translate(-0.284 -0.285)"/>
      <path id="Path_311" data-name="Path 311" class="cls-1" d="M157.736,83.518h0a111.471,111.471,0,0,1-33.129-17.012,112.089,112.089,0,0,1,11.441-35.418h0A114.67,114.67,0,0,1,100.63,42.529,111.153,111.153,0,0,1,83.518,9.3h0A111.471,111.471,0,0,1,66.506,42.429,109.41,109.41,0,0,1,30.988,30.988h0A111.852,111.852,0,0,1,42.429,66.506,111.471,111.471,0,0,1,9.3,83.518h0A111.471,111.471,0,0,1,42.429,100.53a112.089,112.089,0,0,1-11.441,35.418h0a112.089,112.089,0,0,1,35.418-11.441,111.471,111.471,0,0,1,17.012,33.129h0a111.471,111.471,0,0,1,17.012-33.129,112.668,112.668,0,0,1,35.517,11.441h0a111.852,111.852,0,0,1-11.441-35.517,112.84,112.84,0,0,1,33.229-16.913ZM131.173,35.764a114.4,114.4,0,0,0-8.655,29.15,110.11,110.11,0,0,1-10.944-9.65,124.491,124.491,0,0,1-9.65-10.944,109.94,109.94,0,0,0,29.249-8.556m-47.655-19.7A112.68,112.68,0,0,0,98.043,42.827a116.208,116.208,0,0,1-14.525.9,117.394,117.394,0,0,1-14.525-.9A116.34,116.34,0,0,0,83.518,16.065m-47.754,19.7a114.4,114.4,0,0,0,29.15,8.655,110.114,110.114,0,0,1-9.65,10.944,124.49,124.49,0,0,1-10.944,9.65,109.94,109.94,0,0,0-8.556-29.249m-19.7,47.754A112.68,112.68,0,0,0,42.827,68.993a116.208,116.208,0,0,1,.9,14.525,117.394,117.394,0,0,1-.9,14.525A112.68,112.68,0,0,0,16.065,83.518m19.7,47.655a114.4,114.4,0,0,0,8.655-29.15,110.114,110.114,0,0,1,10.944,9.65,124.486,124.486,0,0,1,9.65,10.944,113.743,113.743,0,0,0-29.249,8.556m47.754,19.8a112.68,112.68,0,0,0-14.525-26.762,116.207,116.207,0,0,1,14.525-.9,117.393,117.393,0,0,1,14.525.9,112.68,112.68,0,0,0-14.525,26.762m16.018-28.851a117.765,117.765,0,0,0-32.035,0,111.071,111.071,0,0,0-10.546-12.138A111.076,111.076,0,0,0,44.817,99.436a122.6,122.6,0,0,0,1.094-16.018A122.6,122.6,0,0,0,44.817,67.4,121.232,121.232,0,0,0,56.955,56.855,111.075,111.075,0,0,0,67.5,44.718a122.6,122.6,0,0,0,16.018,1.094,122.6,122.6,0,0,0,16.018-1.094,111.076,111.076,0,0,0,10.546,12.138A111.076,111.076,0,0,0,122.219,67.4a117.767,117.767,0,0,0,0,32.035,111.075,111.075,0,0,0-12.138,10.546,133.439,133.439,0,0,0-10.546,12.138m31.637,9.053a114.4,114.4,0,0,0-29.15-8.655,110.11,110.11,0,0,1,9.65-10.944,124.487,124.487,0,0,1,10.944-9.65,113.743,113.743,0,0,0,8.556,29.249m-6.964-33.129a116.212,116.212,0,0,1-.9-14.525,117.4,117.4,0,0,1,.9-14.525,116.34,116.34,0,0,0,26.762,14.525,112.68,112.68,0,0,0-26.762,14.525" transform="translate(-0.048 -0.048)"/>
      <path id="Path_312" data-name="Path 312" class="cls-1" d="M83.47,0a83.47,83.47,0,1,0,83.47,83.47A83.517,83.517,0,0,0,83.47,0m0,164.652A81.182,81.182,0,1,1,164.652,83.47,81.267,81.267,0,0,1,83.47,164.652"/>
      <path id="Path_313" data-name="Path 313" class="cls-1" d="M24.443,225.947H13.3V196.3H31.8v2.786H16.484v9.352h8.059c5.571,0,9.153,3.482,9.153,8.755-.1,5.273-3.681,8.755-9.252,8.755m-.3-14.625h-7.76v11.839h7.76c3.98,0,6.268-2.189,6.268-5.87,0-3.781-2.288-5.969-6.268-5.969" transform="translate(-0.068 -1.005)"/>
      <path id="Path_314" data-name="Path 314" class="cls-1" d="M60.907,225.947V201.772L45.785,225.947H42.8V196.3h3.184v24.176L61.106,196.3H64.09v29.647Z" transform="translate(-0.219 -1.005)"/>
      <path id="Path_315" data-name="Path 315" class="cls-1" d="M91.3,225.947V199.085H81.248v10.148c0,12.535-2.985,16.614-8.655,16.614H71.1v-2.786h.8c3.681,0,6.268-2.487,6.268-14.824V196.2H94.48v29.647H91.3Z" transform="translate(-0.364 -1.005)"/>
      <path id="Path_316" data-name="Path 316" class="cls-1" d="M104.1,210.426h17.709c0-5.671-.3-7.561-2.089-9.451a7.378,7.378,0,0,0-5.173-2.089c-3.681,0-6.367,2.288-7.163,6.069H104.2c.9-5.173,4.676-8.854,10.347-8.854a10.434,10.434,0,0,1,7.561,3.084c2.786,2.786,2.786,5.671,2.786,12.038,0,6.268,0,9.252-2.786,12.038a10.6,10.6,0,0,1-7.561,3.084,10.823,10.823,0,0,1-7.959-3.383C104.8,220.972,104,218.684,104,215.3v-4.875Zm3.184,4.974a7.913,7.913,0,0,0,1.691,5.372,7.279,7.279,0,0,0,5.671,2.587,7.377,7.377,0,0,0,5.173-2.089c1.592-1.691,1.99-3.482,2.089-8.059H107.383V215.4Z" transform="translate(-0.533 -1.004)"/>
      <path id="Path_317" data-name="Path 317" class="cls-1" d="M145.643,213.71h-7.86v12.237H134.6V196.3h11.043c5.372,0,9.153,3.383,9.153,8.755,0,5.173-3.781,8.655-9.153,8.655m-.2-14.625h-7.661v11.839h7.661c3.681,0,6.268-1.99,6.268-5.87,0-3.98-2.587-5.969-6.268-5.969" transform="translate(-0.689 -1.005)"/>
      <path id="Path_318" data-name="Path 318" class="cls-1" d="M21.836,272.741v-3.88c-8.755-.3-12.336-4.477-12.336-12.237s3.781-11.74,12.336-12.038V241.8H25.02v2.786c8.556.3,12.336,4.278,12.336,12.038s-3.582,11.939-12.336,12.237v3.88Zm0-25.369c-7.163.2-9.252,3.681-9.252,9.451s2.288,9.252,9.252,9.451Zm3.184,18.8c6.964-.2,9.153-3.582,9.153-9.451s-2.089-9.252-9.153-9.451v18.9Z" transform="translate(-0.049 -1.238)"/>
      <path id="Path_319" data-name="Path 319" class="cls-1" d="M62.808,269.96a10.119,10.119,0,0,1-7.362,2.885,10.53,10.53,0,0,1-7.462-2.885C45.2,267.174,45,264.588,45,257.823s.2-9.352,2.985-12.138a10.359,10.359,0,0,1,7.462-2.885,10.119,10.119,0,0,1,7.362,2.885c2.786,2.786,2.985,5.372,2.985,12.138s-.2,9.252-2.985,12.137M60.52,247.575a6.974,6.974,0,0,0-5.173-2.089,7.133,7.133,0,0,0-5.173,2.089c-1.89,1.89-2.089,4.079-2.089,10.148s.2,8.257,2.089,10.148a6.974,6.974,0,0,0,5.173,2.089,7.133,7.133,0,0,0,5.173-2.089c1.89-1.89,2.089-4.079,2.089-10.148s-.2-8.258-2.089-10.148" transform="translate(-0.23 -1.243)"/>
      <path id="Path_320" data-name="Path 320" class="cls-1" d="M86.543,260.41h-7.86v12.237H75.5V243H86.543c5.372,0,9.153,3.383,9.153,8.755s-3.781,8.655-9.153,8.655m-.3-14.625H78.584v11.839h7.661c3.681,0,6.268-1.99,6.268-5.87,0-4.079-2.587-5.969-6.268-5.969" transform="translate(-0.387 -1.245)"/>
      <path id="Path_321" data-name="Path 321" class="cls-1" d="M111.242,267.971c-1.194,2.686-2.885,4.576-5.87,4.576h-2.587v-2.786h1.89c2.089,0,3.084-.9,3.88-2.985l1.194-2.786L100,242.9h3.383l7.959,17.51L118.5,242.9h3.383Z" transform="translate(-0.512 -1.244)"/>
      <path id="Path_322" data-name="Path 322" class="cls-1" d="M150.886,272.547V250.063l-8.059,17.808h-2.786l-8.158-17.808v22.484H128.7V242.9h3.184l9.65,21.091,9.352-21.091h3.184v29.647Z" transform="translate(-0.659 -1.244)"/>
      <path id="Path_323" data-name="Path 323" class="cls-1" d="M38.8,319.246V316.56l11.74-14.824a7.13,7.13,0,0,0,1.691-4.377c0-3.184-1.89-5.372-5.173-5.372-2.786,0-5.173,1.592-5.173,5.372H38.9c0-4.676,3.184-8.059,8.158-8.059,4.875,0,8.158,3.084,8.158,7.959,0,2.388-.8,3.88-2.388,5.969L42.481,316.46H55.215v2.686H38.8Z" transform="translate(-0.199 -1.482)"/>
      <path id="Path_324" data-name="Path 324" class="cls-1" d="M70.858,319.445a7.836,7.836,0,0,1-8.158-8.158V297.458a8.158,8.158,0,1,1,16.316,0v13.829a7.89,7.89,0,0,1-8.158,8.158m5.074-21.788c0-3.283-1.791-5.671-5.173-5.671s-5.173,2.388-5.173,5.671v13.53c0,3.283,1.791,5.671,5.173,5.671s5.173-2.388,5.173-5.671Z" transform="translate(-0.321 -1.482)"/>
      <path id="Path_325" data-name="Path 325" class="cls-1" d="M94.671,319.247V292.883L89.1,297.758v-3.383l5.571-4.775h2.985v29.647Z" transform="translate(-0.456 -1.483)"/>
      <path id="Path_326" data-name="Path 326" class="cls-1" d="M118.755,319.445c-4.875,0-8.755-3.383-8.755-8.456a7.988,7.988,0,0,1,4.477-7.163,7.262,7.262,0,0,1-3.88-6.566,8.16,8.16,0,0,1,16.316,0,7.086,7.086,0,0,1-3.88,6.566,8.018,8.018,0,0,1,4.377,7.163c0,5.074-3.781,8.456-8.655,8.456m0-14.227a5.77,5.77,0,1,0,5.77,5.77,5.774,5.774,0,0,0-5.77-5.77m0-13.232a5.069,5.069,0,0,0-5.173,5.372,5.174,5.174,0,1,0,10.347,0c-.1-3.084-2.189-5.372-5.173-5.372" transform="translate(-0.563 -1.482)"/>
    </g>
  </g>
</svg>
