<svg xmlns="http://www.w3.org/2000/svg" viewBox="758.596 9477.077 69.126 75.883">
  <defs>
    <style>
      .cls-1 {
        fill: #3d5e98;
      }

      .cls-2 {
        fill: #4c76be;
      }

      .cls-3 {
        fill: #fff;
        fill-rule: evenodd;
      }
    </style>
  </defs>
  <g id="fb" transform="translate(758.596 9477.077)">
    <g id="Group_410" data-name="Group 410" transform="translate(0 6.757)">
      <g id="Group_409" data-name="Group 409">
        <rect id="Rectangle_472" data-name="Rectangle 472" class="cls-1" width="69.126" height="69.126"/>
      </g>
    </g>
    <rect id="Rectangle_473" data-name="Rectangle 473" class="cls-2" width="69.126" height="69.126"/>
    <path id="Path_501" data-name="Path 501" class="cls-3" d="M26.092,12.517h4.418V5.76c-.78,0-1.3-.26-2.079-.26h-3.9a8.157,8.157,0,0,0-5.457,1.819A8.618,8.618,0,0,0,15.7,12.776a10.66,10.66,0,0,0-.26,2.859v4.938H9.2v7.276h6.237V46.3h7.536V27.849h6.5a70.049,70.049,0,0,1,1.039-7.276H23.493v-5.2C23.233,13.036,24.532,12.517,26.092,12.517Z" transform="translate(14.708 8.793)"/>
  </g>
</svg>
