<svg xmlns="http://www.w3.org/2000/svg" viewBox="660 9477 69 75">
  <defs>
    <style>
      .cls-1 {
        fill: #ca2d28;
      }

      .cls-2 {
        fill: #fd3832;
      }

      .cls-3 {
        fill: #fff;
      }
    </style>
  </defs>
  <g id="Group_395" data-name="Group 395" transform="translate(659.677 9476.772)">
    <g id="Group_392" data-name="Group 392" transform="translate(0 6.736)">
      <g id="Group_391" data-name="Group 391">
        <rect id="Rectangle_463" data-name="Rectangle 463" class="cls-1" width="69" height="68" transform="translate(0.323 0.491)"/>
      </g>
    </g>
    <rect id="Rectangle_464" data-name="Rectangle 464" class="cls-2" width="69" height="69" transform="translate(0.323 0.228)"/>
    <g id="Group_394" data-name="Group 394" transform="translate(17.618 13.991)">
      <path id="Path_494" data-name="Path 494" class="cls-3" d="M122.564,5.637h-3l-1,6-2-6h-2c.518,1.3.482,2.445,1,4,.777,2.073,2,3.964,2,5v6h2v-6Zm6,11v-3a6.713,6.713,0,0,0-1-3,2.5,2.5,0,0,0-4,0,5.179,5.179,0,0,0-1,3v3a4.58,4.58,0,0,0,1,3,2.5,2.5,0,0,0,4,0A6.713,6.713,0,0,0,128.564,16.637Zm-2,1c0,1.036-.223,1-1,1s-1,.036-1-1v-5c0-1.036.223-2,1-2s1,.964,1,2Zm9,3v-11h-2v8c-.518.777-.482,1-1,1-.259,0-1,.259-1,0v-9h-2v9c0,.777.741,1.482,1,2s.482,0,1,0a2.5,2.5,0,0,0,2-1v1Z" transform="translate(-108.859 -5.4)"/>
      <g id="Group_393" data-name="Group 393" transform="translate(0 17.359)">
        <path id="Path_495" data-name="Path 495" class="cls-3" d="M120.973,16.091c-.259,0-.741-.259-1,0v7c.259.259.741,1,1,1,.518,0,1-.964,1-2v-5C122.232,16.055,121.75,16.091,120.973,16.091Z" transform="translate(-100.268 -6.214)"/>
        <path id="Path_496" data-name="Path 496" class="cls-3" d="M124.2,16.091c-.777,0-1-.036-1,1v1h2v-1C125.2,16.055,124.718,16.091,124.2,16.091Z" transform="translate(-95.495 -6.214)"/>
        <path id="Path_497" data-name="Path 497" class="cls-3" d="M144.9,15.978c-.518-1.814-1.186-2.741-3-3a109.776,109.776,0,0,0-13-1,109.776,109.776,0,0,0-13,1,3.141,3.141,0,0,0-3,3,42.233,42.233,0,0,0-1,8,42.233,42.233,0,0,0,1,8c.518,1.814,1.186,2.741,3,3a109.776,109.776,0,0,0,13,1,109.776,109.776,0,0,0,13-1,3.141,3.141,0,0,0,3-3,42.233,42.233,0,0,0,1-8A39.749,39.749,0,0,0,144.9,15.978Zm-23,2h-3v13h-2v-13h-2v-2h7Zm6,13h-2v-1a1.936,1.936,0,0,1-2,1c-.777,0-1.741.518-2,0v-11h2v9c0,.259.741,0,1,0,.518,0,.482-.223,1-1v-8h2Zm8-3c0,1.036.259,1.482,0,2-.259.777-1.223,2-2,2s-1.482-1.223-2-2v1h-2v-15h2v5a2.5,2.5,0,0,1,2-1c.777,0,1.741.223,2,1,.259.518,0,.964,0,2Zm8-2h-4v2c0,1.036.223,2,1,2,.518,0,.741-.482,1-1v-1h2v1c0,.518-.741,1.482-1,2-.518.777-.7,1-2,1a4.222,4.222,0,0,1-3-1,5.179,5.179,0,0,1-1-3v-4c0-1.3.741-1.482,1-2,.518-.777.7-1,2-1,1.036,0,2.482.223,3,1,.518.518,0,.964,0,2v2Z" transform="translate(-112.2 -12.1)"/>
      </g>
    </g>
  </g>
</svg>
