<svg xmlns="http://www.w3.org/2000/svg" viewBox="560.477 9476.772 68.918 75.654">
  <defs>
    <style>
      .cls-1 {
        fill: #305172;
      }

      .cls-2 {
        fill: #5181b8;
      }

      .cls-3, .cls-4 {
        fill: #fff;
      }

      .cls-4 {
        fill-rule: evenodd;
      }
    </style>
  </defs>
  <g id="vk" transform="translate(560.477 9476.772)">
    <g id="Group_400" data-name="Group 400" transform="translate(0 6.736)">
      <g id="Group_399" data-name="Group 399">
        <rect id="Rectangle_467" data-name="Rectangle 467" class="cls-1" width="68.918" height="68.918"/>
      </g>
    </g>
    <rect id="Rectangle_468" data-name="Rectangle 468" class="cls-2" width="68.918" height="68.918"/>
    <path id="Path_499" data-name="Path 499" class="cls-3" d="M114.545,14.673c-.259,7.255-13.473,25.391-20.986,25.391-2.332,0-4.145-2.073-5.7-6.218-2.85-10.882-4.4-17.618-6.736-17.618a10.729,10.729,0,0,0-3.109,1.814L76.2,15.709c4.923-4.145,8.809-8.291,11.4-8.55q4.664-.389,5.441,6.218c.777,5.7,2.073,14.768,4.4,14.768,1.814,0,5.959-7,6.218-9.586.259-3.627-2.591-3.886-5.441-2.591C100.036,9.75,103.664,6.9,109.1,6.9c3.627.259,5.7,2.85,5.441,7.773Z" transform="translate(-60.655 10.977)"/>
    <g id="Base_1_">
      <rect id="Rectangle_469" data-name="Rectangle 469" class="cls-2" width="68.918" height="68.918"/>
    </g>
    <path id="Logo_1_" class="cls-4" d="M119.782,11.473c.259-1.036,0-1.814-1.555-1.814H113.3a2.142,2.142,0,0,0-2.073,1.3,44.4,44.4,0,0,1-6.218,10.364c-1.3,1.3-1.814,1.555-2.332,1.555-.259,0-.777-.259-.777-1.555V11.473c0-1.3-.259-1.814-1.555-1.814H92.318a1.185,1.185,0,0,0-1.3,1.036c0,1.3,1.814,1.555,2.073,4.923v7.514c0,1.555-.259,1.814-1.036,1.814-1.814,0-5.959-6.218-8.291-13.473-.518-1.3-1.036-2.073-2.332-2.073H76.514c-1.555,0-1.814.777-1.814,1.3,0,1.3,1.814,8.032,8.032,16.582,4.145,5.959,10.1,9.327,15.286,9.327,3.109,0,3.627-.777,3.627-2.073v-4.4c0-1.555.259-1.814,1.3-1.814.777,0,2.073.259,4.923,3.368,3.368,3.368,3.886,4.923,5.959,4.923h4.923c1.555,0,2.073-.777,1.814-2.073a31.528,31.528,0,0,0-4.145-5.959,36.972,36.972,0,0,1-3.368-3.627c-.777-1.036-.518-1.3,0-2.332C112.786,23.132,119,14.323,119.782,11.473Z" transform="translate(-63.041 14.955)"/>
  </g>
</svg>
