<svg xmlns="http://www.w3.org/2000/svg" viewBox="362 9477 69 76">
  <defs>
    <style>
      .cls-1 {
        fill: #68356f;
      }

      .cls-2 {
        fill: #b563ac;
      }

      .cls-3 {
        fill: #fff;
      }
    </style>
  </defs>
  <g id="Group_415" data-name="Group 415" transform="translate(362 9477)">
    <g id="Group_413" data-name="Group 413" transform="translate(0 6.763)">
      <g id="Group_412" data-name="Group 412">
        <rect id="Rectangle_476" data-name="Rectangle 476" class="cls-1" width="69" height="69" transform="translate(0 0.237)"/>
      </g>
    </g>
    <rect id="Rectangle_477" data-name="Rectangle 477" class="cls-2" width="69" height="69"/>
  </g>
  <g id="Group_416" data-name="Group 416" transform="translate(-183.904 -651.5)">
    <path id="Path_310" data-name="Path 310" class="cls-3" d="M71.548,64.024c0-.943-1.429-1-2-1a38.389,38.389,0,0,0-6,1,48.344,48.344,0,0,0,5-4c.429-.429,1.686-1.343,1-2-.657-.657-1.571.6-2,1a47.571,47.571,0,0,0-4,4,23.27,23.27,0,0,0,1-5c0-.6-.057-2-1-2s-1,1.429-1,2a25.162,25.162,0,0,0,1,5,27.279,27.279,0,0,0-3-4c-.429-.429-2.343-1.686-3-1-.657.657.6,1.571,1,2a41.708,41.708,0,0,0,5,4,35.289,35.289,0,0,0-6-1c-.6,0-2,.057-2,1s1.429,1,2,1a38.389,38.389,0,0,0,6-1c-.886.6-3.743,1.743-5,3-.429.429-1.686,1.343-1,2,.657.657,2.571.4,3,0,1.257-1.286,2.429-4.114,3-5a35.29,35.29,0,0,0-1,6c0,.6.057,2,1,2s1-1.429,1-2a38.389,38.389,0,0,0-1-6,48.344,48.344,0,0,0,4,5,1.4,1.4,0,0,0,2,0c.657-.657-.6-1.571-1-2-1.286-1.257-4.114-2.429-5-3a35.29,35.29,0,0,0,6,1c.571-.029,2-.057,2-1" transform="translate(517.356 10099.476)"/>
    <path id="Path_311" data-name="Path 311" class="cls-3" d="M51.547,30.952h0a29.829,29.829,0,0,1-9-5,30.81,30.81,0,0,1,3-10h0a31.526,31.526,0,0,1-10,3,34.549,34.549,0,0,1-5-10h0a34.914,34.914,0,0,1-5,10,29.926,29.926,0,0,1-10-3h0a30.6,30.6,0,0,1,3,10,29.829,29.829,0,0,1-9,5h0a29.829,29.829,0,0,1,9,5,30.81,30.81,0,0,1-3,10h0c3.114-1.628,6.372-3.457,10-4a34.914,34.914,0,0,1,5,10h0a34.914,34.914,0,0,1,5-10c3.628.543,6.886,2.372,10,4h0a30.6,30.6,0,0,1-3-10,30.107,30.107,0,0,1,9-5Zm-7-14c-1.2,2.657-2.543,5.114-3,8-1.086-.829-2-1-3-2s-2.143-2.914-3-4c2.914-.429,6.343-.8,9-2m-14-6a33.812,33.812,0,0,0,4,8,31.141,31.141,0,0,1-4,0,31.144,31.144,0,0,1-4,0,34.929,34.929,0,0,0,4-8m-14,6c2.657,1.2,6.114,1.543,9,2a44.228,44.228,0,0,1-3,4c-1,1-1.914,1.143-3,2-.429-2.914-1.8-5.343-3-8m-5,14c2.714-1.029,4.629-3.257,7-5,.171,1.371,1,3.572,1,5,0,1.4-.829,2.629-1,4a27.565,27.565,0,0,0-7-4m5,13c1.2-2.657,2.543-5.114,3-8a33.031,33.031,0,0,1,3,3,37.152,37.152,0,0,1,3,3c-2.914.429-6.343.829-9,2m14,6a33.811,33.811,0,0,0-4-8,31.141,31.141,0,0,1,4,0,31.144,31.144,0,0,1,4,0,33.811,33.811,0,0,0-4,8m5-8c-1.514-.2-3.457-1-5-1s-3.486.8-5,1a37.436,37.436,0,0,0-3-4,27.041,27.041,0,0,0-3-3,26.7,26.7,0,0,0,0-4,41.705,41.705,0,0,0,0-5,29.736,29.736,0,0,0,3-3,27.041,27.041,0,0,0,3-3,41.706,41.706,0,0,0,5,0,41.706,41.706,0,0,0,5,0,27.042,27.042,0,0,0,3,3,27.041,27.041,0,0,0,3,3,41.706,41.706,0,0,0,0,5,26.7,26.7,0,0,0,0,4,27.041,27.041,0,0,0-3,3,44.228,44.228,0,0,0-3,4m9,2c-2.657-1.2-6.114-1.543-9-2a33.03,33.03,0,0,1,3-3,37.152,37.152,0,0,1,3-3c.429,2.914,1.829,5.343,3,8m-2-9c-.171-1.371-1-2.572-1-4,0-1.4.829-3.629,1-5,2.371,1.714,4.286,3.971,7,5a27.565,27.565,0,0,0-7,4" transform="translate(550.357 10132.548)"/>
    <path id="Path_312" data-name="Path 312" class="cls-3" d="M23.9.31a24,24,0,1,0,24,24,24.035,24.035,0,0,0-24-24m0,47a22.806,22.806,0,0,1-23-23c0-12.857,10.143-24,23-24s23,11.143,23,24a22.806,22.806,0,0,1-23,23" transform="translate(557 10139.19)"/>
  </g>
</svg>
