<svg xmlns="http://www.w3.org/2000/svg" viewBox="362 9477 69.195 75.959">
  <defs>
    <style>
      .cls-1 {
        fill: #68356f;
      }

      .cls-2 {
        fill: #b563ac;
      }

      .cls-3 {
        fill: #fff;
      }
    </style>
  </defs>
  <g id="selet" transform="translate(-45 -270)">
    <g id="Group_415" data-name="Group 415" transform="translate(407 9747)">
      <g id="Group_413" data-name="Group 413" transform="translate(0 6.763)">
        <g id="Group_412" data-name="Group 412">
          <rect id="Rectangle_476" data-name="Rectangle 476" class="cls-1" width="69.196" height="69.196"/>
        </g>
      </g>
      <rect id="Rectangle_477" data-name="Rectangle 477" class="cls-2" width="69.196" height="69.196"/>
    </g>
    <g id="Group_416" data-name="Group 416" transform="translate(-138.904 -381.5)">
      <path id="Path_310" data-name="Path 310" class="cls-3" d="M71.671,63.685c0-.943-1.543-1.029-2.114-1.029a35.711,35.711,0,0,0-5.771.943,35.514,35.514,0,0,0,4.743-3.4c.429-.429,1.457-1.571.771-2.228-.657-.657-1.8.371-2.228.771a33.091,33.091,0,0,0-3.4,4.743,32.809,32.809,0,0,0,.943-5.771c0-.6-.086-2.114-1.029-2.114s-1.029,1.543-1.029,2.114a35.711,35.711,0,0,0,.943,5.771,35.514,35.514,0,0,0-3.4-4.743c-.429-.429-1.571-1.457-2.228-.771-.657.657.371,1.8.771,2.228a30.977,30.977,0,0,0,4.743,3.4,32.809,32.809,0,0,0-5.771-.943c-.6,0-2.114.086-2.114,1.029s1.543,1.029,2.114,1.029a35.711,35.711,0,0,0,5.771-.943,35.516,35.516,0,0,0-4.743,3.4c-.429.429-1.457,1.571-.771,2.228.657.657,1.8-.371,2.228-.771a34.764,34.764,0,0,0,3.4-4.743,32.809,32.809,0,0,0-.943,5.771c0,.6.086,2.114,1.029,2.114s1.029-1.543,1.029-2.114a35.711,35.711,0,0,0-.943-5.771,35.514,35.514,0,0,0,3.4,4.743c.429.429,1.571,1.457,2.228.771.657-.657-.371-1.8-.771-2.228a34.765,34.765,0,0,0-4.743-3.4,32.809,32.809,0,0,0,5.771.943c.571-.029,2.114-.086,2.114-1.029" transform="translate(517.356 10099.476)"/>
      <path id="Path_311" data-name="Path 311" class="cls-3" d="M51.926,30.613h0a32.011,32.011,0,0,1-9.514-4.885A32.189,32.189,0,0,1,45.7,15.557h0a32.93,32.93,0,0,1-10.171,3.286A31.92,31.92,0,0,1,30.613,9.3h0a32.011,32.011,0,0,1-4.885,9.514,31.419,31.419,0,0,1-10.2-3.286h0a32.121,32.121,0,0,1,3.286,10.2A32.011,32.011,0,0,1,9.3,30.613h0A32.011,32.011,0,0,1,18.814,35.5,32.189,32.189,0,0,1,15.528,45.67h0A32.189,32.189,0,0,1,25.7,42.384,32.011,32.011,0,0,1,30.585,51.9h0a32.011,32.011,0,0,1,4.885-9.514,32.355,32.355,0,0,1,10.2,3.286h0a32.121,32.121,0,0,1-3.286-10.2,32.4,32.4,0,0,1,9.542-4.857ZM44.3,16.9a32.852,32.852,0,0,0-2.486,8.371A31.621,31.621,0,0,1,38.67,22.5,35.751,35.751,0,0,1,35.9,19.357,31.571,31.571,0,0,0,44.3,16.9M30.613,11.243a32.359,32.359,0,0,0,4.171,7.685,33.371,33.371,0,0,1-4.171.257,33.712,33.712,0,0,1-4.171-.257,33.41,33.41,0,0,0,4.171-7.685M16.9,16.9a32.852,32.852,0,0,0,8.371,2.486A31.622,31.622,0,0,1,22.5,22.528,35.75,35.75,0,0,1,19.357,25.3,31.572,31.572,0,0,0,16.9,16.9M11.243,30.613a32.359,32.359,0,0,0,7.685-4.171,33.371,33.371,0,0,1,.257,4.171,33.712,33.712,0,0,1-.257,4.171,32.359,32.359,0,0,0-7.685-4.171M16.9,44.3a32.851,32.851,0,0,0,2.486-8.371A31.622,31.622,0,0,1,22.528,38.7,35.749,35.749,0,0,1,25.3,41.841,32.664,32.664,0,0,0,16.9,44.3m13.714,5.685A32.358,32.358,0,0,0,26.442,42.3a33.371,33.371,0,0,1,4.171-.257,33.712,33.712,0,0,1,4.171.257,32.358,32.358,0,0,0-4.171,7.685m4.6-8.285a33.819,33.819,0,0,0-9.2,0,31.9,31.9,0,0,0-3.028-3.486A31.9,31.9,0,0,0,19.5,35.184a35.206,35.206,0,0,0,.314-4.6,35.206,35.206,0,0,0-.314-4.6,34.814,34.814,0,0,0,3.486-3.028,31.9,31.9,0,0,0,3.028-3.486,35.207,35.207,0,0,0,4.6.314,35.207,35.207,0,0,0,4.6-.314,31.9,31.9,0,0,0,3.028,3.486,31.9,31.9,0,0,0,3.486,3.028,33.82,33.82,0,0,0,0,9.2,31.9,31.9,0,0,0-3.486,3.028A38.32,38.32,0,0,0,35.213,41.7M44.3,44.3a32.852,32.852,0,0,0-8.371-2.486A31.621,31.621,0,0,1,38.7,38.67,35.75,35.75,0,0,1,41.841,35.9,32.663,32.663,0,0,0,44.3,44.3m-2-9.514a33.372,33.372,0,0,1-.257-4.171,33.713,33.713,0,0,1,.257-4.171,33.409,33.409,0,0,0,7.685,4.171A32.358,32.358,0,0,0,42.3,34.784" transform="translate(550.357 10132.548)"/>
      <path id="Path_312" data-name="Path 312" class="cls-3" d="M23.97,0A23.97,23.97,0,1,0,47.94,23.97,23.984,23.984,0,0,0,23.97,0m0,47.283A23.313,23.313,0,1,1,47.283,23.97,23.337,23.337,0,0,1,23.97,47.283" transform="translate(557 10139.19)"/>
    </g>
  </g>
</svg>
