<svg xmlns="http://www.w3.org/2000/svg" viewBox="560 9477 69 75">
  <defs>
    <style>
      .cls-1 {
        fill: #305172;
      }

      .cls-2 {
        fill: #5181b8;
      }

      .cls-3, .cls-4 {
        fill: #fff;
      }

      .cls-4 {
        fill-rule: evenodd;
      }
    </style>
  </defs>
  <g id="Group_401" data-name="Group 401" transform="translate(560.477 9476.772)">
    <g id="Group_400" data-name="Group 400" transform="translate(0 6.736)">
      <g id="Group_399" data-name="Group 399">
        <rect id="Rectangle_467" data-name="Rectangle 467" class="cls-1" width="69" height="68" transform="translate(-0.477 0.491)"/>
      </g>
    </g>
    <rect id="Rectangle_468" data-name="Rectangle 468" class="cls-2" width="69" height="69" transform="translate(-0.477 0.228)"/>
    <path id="Path_499" data-name="Path 499" class="cls-3" d="M114.177,14.25c-.259,7.255-13.486,26-21,26-2.332,0-3.445-1.855-5-6-2.85-10.882-4.668-18-7-18a16.638,16.638,0,0,0-3,2l-2-3c4.923-4.145,8.409-7.741,11-8,3.109-.259,5.482,1.6,6,6,.777,5.7,1.668,15,4,15,1.814,0,5.741-7.409,6-10,.259-3.627-2.15-3.3-5-2,1.814-6.218,5.559-9,11-9,3.627.259,5.259,2.077,5,7Z" transform="translate(-60.655 10.977)"/>
    <g id="Base_1_">
      <rect id="Rectangle_469" data-name="Rectangle 469" class="cls-2" width="69" height="69" transform="translate(-0.477 0.228)"/>
    </g>
    <path id="Logo_1_" class="cls-4" d="M119.564,11.273c.259-1.036.555-2-1-2h-5c-1.3,0-1.741,1.482-2,2a74.248,74.248,0,0,1-7,10c-1.3,1.3-1.482,2-2,2-.259,0-1-.7-1-2v-10c0-1.3.3-2-1-2h-8c-.777,0-2,.482-2,1,0,1.3,2.741,1.632,3,5v8a1.9,1.9,0,0,1-2,2c-1.814,0-5.668-6.745-8-14-.518-1.3-.7-2-2-2h-5c-1.555,0-2,.482-2,1,0,1.3,1.782,8.45,8,17,4.145,5.959,9.818,9,15,9,3.109,0,4-.7,4-2v-4c0-1.555-.036-2,1-2,.777,0,2.15-.109,5,3,3.368,3.368,3.927,5,6,5h5c1.555,0,2.259-.7,2-2a29.041,29.041,0,0,0-4-6c-1.3-1.3-3.482-2.223-4-3a2.559,2.559,0,0,1,0-3C112.3,22.791,118.786,14.123,119.564,11.273Z" transform="translate(-63.041 14.955)"/>
  </g>
</svg>
