<svg xmlns="http://www.w3.org/2000/svg" viewBox="2627 -26.573 1306.7 3122.554" style="background-color: #2e232d;">
    <defs>
        <style>
            .cls-1{opacity:.25}.cls-2,.cls-5{fill:#fa4c5f}.cls-2,.cls-3,.cls-4,.cls-7{fill-rule:evenodd}.cls-3{fill:#62d0f2}.cls-4{fill:#fbd33a}.cls-6,.cls-7{fill:#e35393}
        </style>
    </defs>
    <g id="Group_464" class="cls-1" data-name="Group 464" transform="translate(2675 -270)">
        <path id="Path_516" d="M380.488 683.388L267.5 570.4v112.988z" class="cls-2" data-name="Path 516" transform="translate(-127.498 -221.407)"/>
        <path id="Path_517" d="M1280 466.3h-92.2l92.2-92.2z" class="cls-3" data-name="Path 517" transform="translate(-1140.498 1073.327)"/>
        <path id="Path_519" d="M1280 466.3h-92.2l92.2-92.2z" class="cls-3" data-name="Path 519" transform="translate(-60.498 -130.673)"/>
        <g id="Group_457" data-name="Group 457" transform="translate(-331 -83)">
            <g id="Group_380" data-name="Group 380" transform="translate(283 831)">
                <path id="Path_479" d="M95.8 47.9a47.9 47.9 0 1 0-47.9 47.9 47.906 47.906 0 0 0 47.9-47.9" class="cls-4" data-name="Path 479"/>
                <path id="Rectangle_458" d="M0 0h44.1v44.1H0z" class="cls-5" data-name="Rectangle 458" transform="rotate(-45 66.116 3.758)"/>
            </g>
        </g>
        <g id="Group_461" data-name="Group 461" transform="translate(685 771)">
            <g id="Group_380-2" data-name="Group 380" transform="translate(283 831)">
                <path id="Path_479-2" d="M95.8 47.9a47.9 47.9 0 1 0-47.9 47.9 47.906 47.906 0 0 0 47.9-47.9" class="cls-4" data-name="Path 479"/>
                <path id="Rectangle_458-2" d="M0 0h44.1v44.1H0z" class="cls-5" data-name="Rectangle 458" transform="rotate(-45 66.116 3.758)"/>
            </g>
        </g>
        <g id="Group_458" data-name="Group 458" transform="translate(-366 -165)">
            <g id="Group_378" data-name="Group 378" transform="translate(595 1195)">
                <path id="Path_476" d="M68.8 27.1L45.9 50l-23-22.9L0 50a45.811 45.811 0 0 0 91.6 0L68.8 27.1z" class="cls-2" data-name="Path 476"/>
                <path id="Rectangle_457" d="M0 0h29.8v29.8H0z" class="cls-6" data-name="Rectangle 457" transform="rotate(-45 37.895 -19.293)"/>
                <path id="Path_477" d="M91.7 42.2L70.6 21.1 91.7 0z" class="cls-7" data-name="Path 477"/>
                <path id="Path_478" d="M0 0l21.1 21.1L0 42.2z" class="cls-7" data-name="Path 478"/>
            </g>
        </g>
        <g id="Group_463" data-name="Group 463" transform="translate(572 1379)">
            <g id="Group_378-2" data-name="Group 378" transform="translate(595 1195)">
                <path id="Path_476-2" d="M68.8 27.1L45.9 50l-23-22.9L0 50a45.811 45.811 0 0 0 91.6 0L68.8 27.1z" class="cls-2" data-name="Path 476"/>
                <path id="Rectangle_457-2" d="M0 0h29.8v29.8H0z" class="cls-6" data-name="Rectangle 457" transform="rotate(-45 37.895 -19.293)"/>
                <path id="Path_477-2" d="M91.7 42.2L70.6 21.1 91.7 0z" class="cls-7" data-name="Path 477"/>
                <path id="Path_478-2" d="M0 0l21.1 21.1L0 42.2z" class="cls-7" data-name="Path 478"/>
            </g>
        </g>
        <g id="Group_459" data-name="Group 459" transform="translate(253 1876)">
            <path id="Path_488" d="M89.9 0H0v89.9z" class="cls-2" data-name="Path 488"/>
            <path id="Path_489" d="M89.9 89.9V0L0 89.9z" class="cls-7" data-name="Path 489"/>
            <path id="Path_490" d="M44.8 88.8V1.2L88.6 45z" class="cls-4" data-name="Path 490"/>
            <path id="Path_491" d="M44.8 88.8V1.2L1 45z" class="cls-3" data-name="Path 491"/>
        </g>
        <g id="Group_462" data-name="Group 462" transform="translate(985 616)">
            <path id="Path_488-2" d="M89.9 0H0v89.9z" class="cls-2" data-name="Path 488"/>
            <path id="Path_489-2" d="M89.9 89.9V0L0 89.9z" class="cls-7" data-name="Path 489"/>
            <path id="Path_490-2" d="M44.8 88.8V1.2L88.6 45z" class="cls-4" data-name="Path 490"/>
            <path id="Path_491-2" d="M44.8 88.8V1.2L1 45z" class="cls-3" data-name="Path 491"/>
        </g>
        <path id="Path_516-2" d="M380.488 683.388L267.5 570.4v112.988z" class="cls-2" data-name="Path 516" transform="translate(-127.498 1604.593)"/>
        <path id="Path_521" d="M380.488 683.388L267.5 570.4v112.988z" class="cls-2" data-name="Path 521" transform="translate(838.502 581.593)"/>
        <path id="Path_522" d="M380.488 683.388L267.5 570.4v112.988z" class="cls-2" data-name="Path 522" transform="translate(783.502 2682.593)"/>
        <path id="Path_517-2" d="M1280 466.3h-92.2l92.2-92.2z" class="cls-3" data-name="Path 517" transform="translate(-1140.498 2899.327)"/>
        <path id="Path_520" d="M1280 466.3h-92.2l92.2-92.2z" class="cls-3" data-name="Path 520" transform="translate(-136.498 1735.327)"/>
        <g id="Group_457-2" data-name="Group 457" transform="translate(-331 1743)">
            <g id="Group_380-3" data-name="Group 380" transform="translate(283 831)">
                <path id="Path_479-3" d="M95.8 47.9a47.9 47.9 0 1 0-47.9 47.9 47.906 47.906 0 0 0 47.9-47.9" class="cls-4" data-name="Path 479"/>
                <path id="Rectangle_458-3" d="M0 0h44.1v44.1H0z" class="cls-5" data-name="Rectangle 458" transform="rotate(-45 66.116 3.758)"/>
            </g>
        </g>
        <g id="Group_458-2" data-name="Group 458" transform="translate(-366 1661)">
            <g id="Group_378-3" data-name="Group 378" transform="translate(595 1195)">
                <path id="Path_476-3" d="M68.8 27.1L45.9 50l-23-22.9L0 50a45.811 45.811 0 0 0 91.6 0L68.8 27.1z" class="cls-2" data-name="Path 476"/>
                <path id="Rectangle_457-3" d="M0 0h29.8v29.8H0z" class="cls-6" data-name="Rectangle 457" transform="rotate(-45 37.895 -19.293)"/>
                <path id="Path_477-3" d="M91.7 42.2L70.6 21.1 91.7 0z" class="cls-7" data-name="Path 477"/>
                <path id="Path_478-3" d="M0 0l21.1 21.1L0 42.2z" class="cls-7" data-name="Path 478"/>
            </g>
        </g>
    </g>
</svg>
